<?xml version="1.0" encoding="iso-8859-1"?>
<!-- Generator: Adobe Illustrator 19.0.0, SVG Export Plug-In . SVG Version: 6.00 Build 0)  -->
<svg version="1.1" id="Capa_1" xmlns="http://www.w3.org/2000/svg" xmlns:xlink="http://www.w3.org/1999/xlink" x="0px" y="0px"
	 viewBox="0 0 396.8 396.8" style="enable-background:new 0 0 396.8 396.8;" xml:space="preserve" fill="rgb(242, 244, 246)">
<g>
	<g>
		<g>
			<path d="M218,47.77l-108.4,66.4l-31.2,18H23.2c-12.8,0-23.2,10.4-23.2,23.2v85.2c0,12.8,10.4,23.6,23.2,23.6H78l30,17.6
				c0.4,0.4,0.8,0.4,1.2,0.8l107.6,65.6c3.2,2.4,7.2,3.6,11.6,3.6c11.2,0,20.4-9.2,20.4-20.4v-133.2V65.77c0-3.6-0.8-7.2-2.8-10.4
				C240.4,45.37,227.6,42.17,218,47.77z"/>
			<path d="M366.8,126.17c-18.4-19.2-44.4-30.8-72.4-30.8c-5.6,0-10.4,4.8-10.4,10.4c0,5.6,4.8,10.4,10.4,10.4
				c22.8,0,43.2,9.2,58,24c14.8,14.8,24,35.2,24,58c0,22.8-9.2,43.2-24,58c-14.8,14.8-35.2,24-58,24c-5.6,0-10.4,4.8-10.4,10.4
				c0,5.6,4.8,10.4,10.4,10.4c28.4,0,54-11.6,72.4-30c18.4-18.4,30-44.4,30-72.4C396.8,170.17,385.2,144.57,366.8,126.17z"/>
			<path d="M294.4,239.77c-5.6,0-10.4,4.8-10.4,10.4c0,5.6,4.8,10.4,10.4,10.4c17.2,0,32.8-6.8,44-18s18-26.8,18-44
				c0-17.2-6.8-32.8-18-44c-11.2-11.2-26.8-18-44-18c-5.6,0-10.4,4.8-10.4,10.4s4.8,10.4,10.4,10.4c11.6,0,22,4.8,29.2,12
				c7.6,7.6,12,18,12,29.2c0,11.6-4.8,22-12,29.2C316,234.97,305.6,239.77,294.4,239.77z"/>
		</g>
	</g>
</g>
<g>
</g>
<g>
</g>
<g>
</g>
<g>
</g>
<g>
</g>
<g>
</g>
<g>
</g>
<g>
</g>
<g>
</g>
<g>
</g>
<g>
</g>
<g>
</g>
<g>
</g>
<g>
</g>
<g>
</g>
</svg>
